<?xml version="1.0" encoding="UTF-8" standalone="no"?>
<!DOCTYPE svg PUBLIC "-//W3C//DTD SVG 1.1//EN"
 "http://www.w3.org/Graphics/SVG/1.1/DTD/svg11.dtd">
<!-- Generated by graphviz version 2.47.0 (20210316.0004)
 -->
<!-- Title: dependencies Pages: 1 -->
<svg width="3656pt" height="284pt"
 viewBox="0.00 0.00 3656.00 284.00" xmlns="http://www.w3.org/2000/svg" xmlns:xlink="http://www.w3.org/1999/xlink">
<g id="graph0" class="graph" transform="scale(1 1) rotate(0) translate(4 280)">
<title>dependencies</title>
<polygon fill="white" stroke="transparent" points="-4,4 -4,-280 3652,-280 3652,4 -4,4"/>
<text text-anchor="start" x="1803.01" y="-42.4" font-family="Times-12" font-weight="bold" font-size="14.00">Legend</text>
<polygon fill="#ffffb3" stroke="transparent" points="1590,-10 1590,-30 1610,-30 1610,-10 1590,-10"/>
<text text-anchor="start" x="1613.63" y="-15.4" font-family="Times-12" font-size="14.00"> &#160;Declarations</text>
<polygon fill="#8dd3c7" stroke="transparent" points="1703,-10 1703,-30 1723,-30 1723,-10 1703,-10"/>
<text text-anchor="start" x="1726.73" y="-15.4" font-family="Times-12" font-size="14.00"> &#160;Module</text>
<polygon fill="#80b1d3" stroke="transparent" points="1789,-10 1789,-30 1809,-30 1809,-10 1789,-10"/>
<text text-anchor="start" x="1812.78" y="-15.4" font-family="Times-12" font-size="14.00"> &#160;Bootstrap</text>
<polygon fill="#fdb462" stroke="transparent" points="1886,-10 1886,-30 1906,-30 1906,-10 1886,-10"/>
<text text-anchor="start" x="1909.67" y="-15.4" font-family="Times-12" font-size="14.00"> &#160;Providers</text>
<polygon fill="#fb8072" stroke="transparent" points="1982,-10 1982,-30 2002,-30 2002,-10 1982,-10"/>
<text text-anchor="start" x="2005.73" y="-15.4" font-family="Times-12" font-size="14.00"> &#160;Exports</text>
<g id="clust1" class="cluster">
<title>cluster_AppModule</title>
<polygon fill="none" stroke="black" stroke-dasharray="1,5" points="8,-70 8,-268 3640,-268 3640,-70 8,-70"/>
</g>
<g id="clust26" class="cluster">
<title>cluster_AppModule_providers</title>
<polygon fill="none" stroke="black" points="3321,-78 3321,-130 3632,-130 3632,-78 3321,-78"/>
</g>
<g id="clust25" class="cluster">
<title>cluster_AppModule_bootstrap</title>
<polygon fill="none" stroke="black" points="1718,-208 1718,-260 1842,-260 1842,-208 1718,-208"/>
</g>
<g id="clust2" class="cluster">
<title>cluster_AppModule_declarations</title>
<polygon fill="none" stroke="black" points="16,-78 16,-130 3313,-130 3313,-78 16,-78"/>
</g>
<!-- ActivitiesListComponent -->
<g id="node1" class="node">
<title>ActivitiesListComponent</title>
<polygon fill="#ffffb3" stroke="black" points="3304.54,-122 3147.46,-122 3147.46,-86 3304.54,-86 3304.54,-122"/>
<text text-anchor="middle" x="3226" y="-99.8" font-family="Times,serif" font-size="14.00">ActivitiesListComponent</text>
</g>
<!-- AppModule -->
<g id="node21" class="node">
<title>AppModule</title>
<polygon fill="#8dd3c7" stroke="black" points="1821.66,-187 1818.66,-191 1797.66,-191 1794.66,-187 1738.34,-187 1738.34,-151 1821.66,-151 1821.66,-187"/>
<text text-anchor="middle" x="1780" y="-164.8" font-family="Times,serif" font-size="14.00">AppModule</text>
</g>
<!-- ActivitiesListComponent&#45;&gt;AppModule -->
<g id="edge1" class="edge">
<title>ActivitiesListComponent&#45;&gt;AppModule</title>
<path fill="none" stroke="black" d="M3226,-122.29C3226,-144.21 3226,-178 3226,-178 3226,-178 1831.72,-178 1831.72,-178"/>
<polygon fill="black" stroke="black" points="1831.72,-174.5 1821.72,-178 1831.72,-181.5 1831.72,-174.5"/>
</g>
<!-- ActivityCreateComponent -->
<g id="node2" class="node">
<title>ActivityCreateComponent</title>
<polygon fill="#ffffb3" stroke="black" points="3128.75,-122 2965.25,-122 2965.25,-86 3128.75,-86 3128.75,-122"/>
<text text-anchor="middle" x="3047" y="-99.8" font-family="Times,serif" font-size="14.00">ActivityCreateComponent</text>
</g>
<!-- ActivityCreateComponent&#45;&gt;AppModule -->
<g id="edge2" class="edge">
<title>ActivityCreateComponent&#45;&gt;AppModule</title>
<path fill="none" stroke="black" d="M3047,-122.03C3047,-142.77 3047,-174 3047,-174 3047,-174 1831.79,-174 1831.79,-174"/>
<polygon fill="black" stroke="black" points="1831.79,-170.5 1821.79,-174 1831.79,-177.5 1831.79,-170.5"/>
</g>
<!-- ActivityDetailsComponent -->
<g id="node3" class="node">
<title>ActivityDetailsComponent</title>
<polygon fill="#ffffb3" stroke="black" points="2947.37,-122 2780.63,-122 2780.63,-86 2947.37,-86 2947.37,-122"/>
<text text-anchor="middle" x="2864" y="-99.8" font-family="Times,serif" font-size="14.00">ActivityDetailsComponent</text>
</g>
<!-- ActivityDetailsComponent&#45;&gt;AppModule -->
<g id="edge3" class="edge">
<title>ActivityDetailsComponent&#45;&gt;AppModule</title>
<path fill="none" stroke="black" d="M2864,-122.31C2864,-142.15 2864,-171 2864,-171 2864,-171 1831.83,-171 1831.83,-171"/>
<polygon fill="black" stroke="black" points="1831.83,-167.5 1821.83,-171 1831.83,-174.5 1831.83,-167.5"/>
</g>
<!-- ActivityUpdateComponent -->
<g id="node4" class="node">
<title>ActivityUpdateComponent</title>
<polygon fill="#ffffb3" stroke="black" points="2762.64,-122 2595.36,-122 2595.36,-86 2762.64,-86 2762.64,-122"/>
<text text-anchor="middle" x="2679" y="-99.8" font-family="Times,serif" font-size="14.00">ActivityUpdateComponent</text>
</g>
<!-- ActivityUpdateComponent&#45;&gt;AppModule -->
<g id="edge4" class="edge">
<title>ActivityUpdateComponent&#45;&gt;AppModule</title>
<path fill="none" stroke="black" d="M2679,-122.17C2679,-141.09 2679,-168 2679,-168 2679,-168 1831.86,-168 1831.86,-168"/>
<polygon fill="black" stroke="black" points="1831.86,-164.5 1821.86,-168 1831.86,-171.5 1831.86,-164.5"/>
</g>
<!-- AppComponent -->
<g id="node5" class="node">
<title>AppComponent</title>
<polygon fill="#ffffb3" stroke="black" points="2576.94,-122 2471.06,-122 2471.06,-86 2576.94,-86 2576.94,-122"/>
<text text-anchor="middle" x="2524" y="-99.8" font-family="Times,serif" font-size="14.00">AppComponent</text>
</g>
<!-- AppComponent&#45;&gt;AppModule -->
<g id="edge5" class="edge">
<title>AppComponent&#45;&gt;AppModule</title>
<path fill="none" stroke="black" d="M2524,-122.3C2524,-140.27 2524,-165 2524,-165 2524,-165 1831.86,-165 1831.86,-165"/>
<polygon fill="black" stroke="black" points="1831.86,-161.5 1821.86,-165 1831.86,-168.5 1831.86,-161.5"/>
</g>
<!-- BoulderComponent -->
<g id="node6" class="node">
<title>BoulderComponent</title>
<polygon fill="#ffffb3" stroke="black" points="2453.44,-122 2326.56,-122 2326.56,-86 2453.44,-86 2453.44,-122"/>
<text text-anchor="middle" x="2390" y="-99.8" font-family="Times,serif" font-size="14.00">BoulderComponent</text>
</g>
<!-- BoulderComponent&#45;&gt;AppModule -->
<g id="edge6" class="edge">
<title>BoulderComponent&#45;&gt;AppModule</title>
<path fill="none" stroke="black" d="M2390,-122.04C2390,-138.73 2390,-161 2390,-161 2390,-161 1831.93,-161 1831.93,-161"/>
<polygon fill="black" stroke="black" points="1831.93,-157.5 1821.93,-161 1831.93,-164.5 1831.93,-157.5"/>
</g>
<!-- BoulderCreateComponent -->
<g id="node7" class="node">
<title>BoulderCreateComponent</title>
<polygon fill="#ffffb3" stroke="black" points="2308.47,-122 2145.53,-122 2145.53,-86 2308.47,-86 2308.47,-122"/>
<text text-anchor="middle" x="2227" y="-99.8" font-family="Times,serif" font-size="14.00">BoulderCreateComponent</text>
</g>
<!-- BoulderCreateComponent&#45;&gt;AppModule -->
<g id="edge7" class="edge">
<title>BoulderCreateComponent&#45;&gt;AppModule</title>
<path fill="none" stroke="black" d="M2227,-122.28C2227,-137.95 2227,-158 2227,-158 2227,-158 1832.05,-158 1832.05,-158"/>
<polygon fill="black" stroke="black" points="1832.05,-154.5 1822.05,-158 1832.05,-161.5 1832.05,-154.5"/>
</g>
<!-- BoulderUpdateComponent -->
<g id="node8" class="node">
<title>BoulderUpdateComponent</title>
<polygon fill="#ffffb3" stroke="black" points="2127.36,-122 1960.64,-122 1960.64,-86 2127.36,-86 2127.36,-122"/>
<text text-anchor="middle" x="2044" y="-99.8" font-family="Times,serif" font-size="14.00">BoulderUpdateComponent</text>
</g>
<!-- BoulderUpdateComponent&#45;&gt;AppModule -->
<g id="edge8" class="edge">
<title>BoulderUpdateComponent&#45;&gt;AppModule</title>
<path fill="none" stroke="black" d="M2044,-122.12C2044,-136.78 2044,-155 2044,-155 2044,-155 1831.83,-155 1831.83,-155"/>
<polygon fill="black" stroke="black" points="1831.83,-151.5 1821.83,-155 1831.83,-158.5 1831.83,-151.5"/>
</g>
<!-- BouldersListComponent -->
<g id="node9" class="node">
<title>BouldersListComponent</title>
<polygon fill="#ffffb3" stroke="black" points="1942.66,-122 1789.34,-122 1789.34,-86 1942.66,-86 1942.66,-122"/>
<text text-anchor="middle" x="1866" y="-99.8" font-family="Times,serif" font-size="14.00">BouldersListComponent</text>
</g>
<!-- BouldersListComponent&#45;&gt;AppModule -->
<g id="edge9" class="edge">
<title>BouldersListComponent&#45;&gt;AppModule</title>
<path fill="none" stroke="black" d="M1805.5,-122.11C1805.5,-122.11 1805.5,-140.99 1805.5,-140.99"/>
<polygon fill="black" stroke="black" points="1802,-140.99 1805.5,-150.99 1809,-140.99 1802,-140.99"/>
</g>
<!-- ClimbCreateComponent -->
<g id="node10" class="node">
<title>ClimbCreateComponent</title>
<polygon fill="#ffffb3" stroke="black" points="1771.37,-122 1618.63,-122 1618.63,-86 1771.37,-86 1771.37,-122"/>
<text text-anchor="middle" x="1695" y="-99.8" font-family="Times,serif" font-size="14.00">ClimbCreateComponent</text>
</g>
<!-- ClimbCreateComponent&#45;&gt;AppModule -->
<g id="edge10" class="edge">
<title>ClimbCreateComponent&#45;&gt;AppModule</title>
<path fill="none" stroke="black" d="M1754.8,-122.11C1754.8,-122.11 1754.8,-140.99 1754.8,-140.99"/>
<polygon fill="black" stroke="black" points="1751.3,-140.99 1754.8,-150.99 1758.3,-140.99 1751.3,-140.99"/>
</g>
<!-- ClimbDeleteComponent -->
<g id="node11" class="node">
<title>ClimbDeleteComponent</title>
<polygon fill="#ffffb3" stroke="black" points="1600.37,-122 1447.63,-122 1447.63,-86 1600.37,-86 1600.37,-122"/>
<text text-anchor="middle" x="1524" y="-99.8" font-family="Times,serif" font-size="14.00">ClimbDeleteComponent</text>
</g>
<!-- ClimbDeleteComponent&#45;&gt;AppModule -->
<g id="edge11" class="edge">
<title>ClimbDeleteComponent&#45;&gt;AppModule</title>
<path fill="none" stroke="black" d="M1524,-122.12C1524,-136.78 1524,-155 1524,-155 1524,-155 1728.3,-155 1728.3,-155"/>
<polygon fill="black" stroke="black" points="1728.3,-158.5 1738.3,-155 1728.3,-151.5 1728.3,-158.5"/>
</g>
<!-- ClimbDetailsComponent -->
<g id="node12" class="node">
<title>ClimbDetailsComponent</title>
<polygon fill="#ffffb3" stroke="black" points="1429.99,-122 1274.01,-122 1274.01,-86 1429.99,-86 1429.99,-122"/>
<text text-anchor="middle" x="1352" y="-99.8" font-family="Times,serif" font-size="14.00">ClimbDetailsComponent</text>
</g>
<!-- ClimbDetailsComponent&#45;&gt;AppModule -->
<g id="edge12" class="edge">
<title>ClimbDetailsComponent&#45;&gt;AppModule</title>
<path fill="none" stroke="black" d="M1352,-122.28C1352,-137.95 1352,-158 1352,-158 1352,-158 1728.18,-158 1728.18,-158"/>
<polygon fill="black" stroke="black" points="1728.18,-161.5 1738.18,-158 1728.18,-154.5 1728.18,-161.5"/>
</g>
<!-- ClimbUpdateComponent -->
<g id="node13" class="node">
<title>ClimbUpdateComponent</title>
<polygon fill="#ffffb3" stroke="black" points="1256.27,-122 1099.73,-122 1099.73,-86 1256.27,-86 1256.27,-122"/>
<text text-anchor="middle" x="1178" y="-99.8" font-family="Times,serif" font-size="14.00">ClimbUpdateComponent</text>
</g>
<!-- ClimbUpdateComponent&#45;&gt;AppModule -->
<g id="edge13" class="edge">
<title>ClimbUpdateComponent&#45;&gt;AppModule</title>
<path fill="none" stroke="black" d="M1178,-122.04C1178,-138.73 1178,-161 1178,-161 1178,-161 1728.15,-161 1728.15,-161"/>
<polygon fill="black" stroke="black" points="1728.15,-164.5 1738.15,-161 1728.15,-157.5 1728.15,-164.5"/>
</g>
<!-- ClimbsListComponent -->
<g id="node14" class="node">
<title>ClimbsListComponent</title>
<polygon fill="#ffffb3" stroke="black" points="1081.56,-122 938.44,-122 938.44,-86 1081.56,-86 1081.56,-122"/>
<text text-anchor="middle" x="1010" y="-99.8" font-family="Times,serif" font-size="14.00">ClimbsListComponent</text>
</g>
<!-- ClimbsListComponent&#45;&gt;AppModule -->
<g id="edge14" class="edge">
<title>ClimbsListComponent&#45;&gt;AppModule</title>
<path fill="none" stroke="black" d="M1010,-122.3C1010,-140.27 1010,-165 1010,-165 1010,-165 1728.33,-165 1728.33,-165"/>
<polygon fill="black" stroke="black" points="1728.33,-168.5 1738.33,-165 1728.33,-161.5 1728.33,-168.5"/>
</g>
<!-- LoginComponent -->
<g id="node15" class="node">
<title>LoginComponent</title>
<polygon fill="#ffffb3" stroke="black" points="920.28,-122 805.72,-122 805.72,-86 920.28,-86 920.28,-122"/>
<text text-anchor="middle" x="863" y="-99.8" font-family="Times,serif" font-size="14.00">LoginComponent</text>
</g>
<!-- LoginComponent&#45;&gt;AppModule -->
<g id="edge15" class="edge">
<title>LoginComponent&#45;&gt;AppModule</title>
<path fill="none" stroke="black" d="M863,-122.17C863,-141.09 863,-168 863,-168 863,-168 1728.22,-168 1728.22,-168"/>
<polygon fill="black" stroke="black" points="1728.22,-171.5 1738.22,-168 1728.22,-164.5 1728.22,-171.5"/>
</g>
<!-- PlaceComponent -->
<g id="node16" class="node">
<title>PlaceComponent</title>
<polygon fill="#ffffb3" stroke="black" points="787.65,-122 676.35,-122 676.35,-86 787.65,-86 787.65,-122"/>
<text text-anchor="middle" x="732" y="-99.8" font-family="Times,serif" font-size="14.00">PlaceComponent</text>
</g>
<!-- PlaceComponent&#45;&gt;AppModule -->
<g id="edge16" class="edge">
<title>PlaceComponent&#45;&gt;AppModule</title>
<path fill="none" stroke="black" d="M732,-122.31C732,-142.15 732,-171 732,-171 732,-171 1728.27,-171 1728.27,-171"/>
<polygon fill="black" stroke="black" points="1728.27,-174.5 1738.27,-171 1728.27,-167.5 1728.27,-174.5"/>
</g>
<!-- PlaceUpdateComponent -->
<g id="node17" class="node">
<title>PlaceUpdateComponent</title>
<polygon fill="#ffffb3" stroke="black" points="658.08,-122 505.92,-122 505.92,-86 658.08,-86 658.08,-122"/>
<text text-anchor="middle" x="582" y="-99.8" font-family="Times,serif" font-size="14.00">PlaceUpdateComponent</text>
</g>
<!-- PlaceUpdateComponent&#45;&gt;AppModule -->
<g id="edge17" class="edge">
<title>PlaceUpdateComponent&#45;&gt;AppModule</title>
<path fill="none" stroke="black" d="M582,-122.03C582,-142.77 582,-174 582,-174 582,-174 1728.06,-174 1728.06,-174"/>
<polygon fill="black" stroke="black" points="1728.07,-177.5 1738.06,-174 1728.06,-170.5 1728.07,-177.5"/>
</g>
<!-- PlacesListComponent -->
<g id="node18" class="node">
<title>PlacesListComponent</title>
<polygon fill="#ffffb3" stroke="black" points="488.37,-122 349.63,-122 349.63,-86 488.37,-86 488.37,-122"/>
<text text-anchor="middle" x="419" y="-99.8" font-family="Times,serif" font-size="14.00">PlacesListComponent</text>
</g>
<!-- PlacesListComponent&#45;&gt;AppModule -->
<g id="edge18" class="edge">
<title>PlacesListComponent&#45;&gt;AppModule</title>
<path fill="none" stroke="black" d="M419,-122.29C419,-144.21 419,-178 419,-178 419,-178 1728.15,-178 1728.15,-178"/>
<polygon fill="black" stroke="black" points="1728.15,-181.5 1738.15,-178 1728.15,-174.5 1728.15,-181.5"/>
</g>
<!-- RegisterComponent -->
<g id="node19" class="node">
<title>RegisterComponent</title>
<polygon fill="#ffffb3" stroke="black" points="331.98,-122 204.02,-122 204.02,-86 331.98,-86 331.98,-122"/>
<text text-anchor="middle" x="268" y="-99.8" font-family="Times,serif" font-size="14.00">RegisterComponent</text>
</g>
<!-- RegisterComponent&#45;&gt;AppModule -->
<g id="edge19" class="edge">
<title>RegisterComponent&#45;&gt;AppModule</title>
<path fill="none" stroke="black" d="M268,-122.25C268,-145.02 268,-181 268,-181 268,-181 1727.98,-181 1727.98,-181"/>
<polygon fill="black" stroke="black" points="1727.98,-184.5 1737.98,-181 1727.98,-177.5 1727.98,-184.5"/>
</g>
<!-- UserActivitiesComponent -->
<g id="node20" class="node">
<title>UserActivitiesComponent</title>
<polygon fill="#ffffb3" stroke="black" points="186.19,-122 23.81,-122 23.81,-86 186.19,-86 186.19,-122"/>
<text text-anchor="middle" x="105" y="-99.8" font-family="Times,serif" font-size="14.00">UserActivitiesComponent</text>
</g>
<!-- UserActivitiesComponent&#45;&gt;AppModule -->
<g id="edge20" class="edge">
<title>UserActivitiesComponent&#45;&gt;AppModule</title>
<path fill="none" stroke="black" d="M105,-122.15C105,-145.76 105,-184 105,-184 105,-184 1728.18,-184 1728.18,-184"/>
<polygon fill="black" stroke="black" points="1728.18,-187.5 1738.18,-184 1728.18,-180.5 1728.18,-187.5"/>
</g>
<!-- AppComponent  -->
<g id="node22" class="node">
<title>AppComponent </title>
<polygon fill="#80b1d3" stroke="black" points="1834.44,-252 1725.56,-252 1725.56,-216 1834.44,-216 1834.44,-252"/>
<text text-anchor="middle" x="1780" y="-229.8" font-family="Times,serif" font-size="14.00">AppComponent </text>
</g>
<!-- AppModule&#45;&gt;AppComponent  -->
<g id="edge21" class="edge">
<title>AppModule&#45;&gt;AppComponent </title>
<path fill="none" stroke="black" stroke-dasharray="1,5" d="M1780,-187.11C1780,-187.11 1780,-205.99 1780,-205.99"/>
<polygon fill="black" stroke="black" points="1776.5,-205.99 1780,-215.99 1783.5,-205.99 1776.5,-205.99"/>
</g>
<!-- ApiHttpService -->
<g id="node23" class="node">
<title>ApiHttpService</title>
<ellipse fill="#fdb462" stroke="black" cx="3552" cy="-104" rx="71.79" ry="18"/>
<text text-anchor="middle" x="3552" y="-99.8" font-family="Times,serif" font-size="14.00">ApiHttpService</text>
</g>
<!-- ApiHttpService&#45;&gt;AppModule -->
<g id="edge22" class="edge">
<title>ApiHttpService&#45;&gt;AppModule</title>
<path fill="none" stroke="black" d="M3552,-122.15C3552,-145.76 3552,-184 3552,-184 3552,-184 1832.05,-184 1832.05,-184"/>
<polygon fill="black" stroke="black" points="1832.05,-180.5 1822.05,-184 1832.05,-187.5 1832.05,-180.5"/>
</g>
<!-- MyInterceptor -->
<g id="node24" class="node">
<title>MyInterceptor</title>
<ellipse fill="#fdb462" stroke="black" cx="3396" cy="-104" rx="66.61" ry="18"/>
<text text-anchor="middle" x="3396" y="-99.8" font-family="Times,serif" font-size="14.00">MyInterceptor</text>
</g>
<!-- MyInterceptor&#45;&gt;AppModule -->
<g id="edge23" class="edge">
<title>MyInterceptor&#45;&gt;AppModule</title>
<path fill="none" stroke="black" d="M3396,-122.25C3396,-145.02 3396,-181 3396,-181 3396,-181 1831.98,-181 1831.98,-181"/>
<polygon fill="black" stroke="black" points="1831.98,-177.5 1821.98,-181 1831.98,-184.5 1831.98,-177.5"/>
</g>
</g>
</svg>
