<?xml version="1.0" encoding="UTF-8" standalone="no"?>
<!DOCTYPE svg PUBLIC "-//W3C//DTD SVG 1.1//EN"
 "http://www.w3.org/Graphics/SVG/1.1/DTD/svg11.dtd">
<!-- Generated by graphviz version 2.47.0 (20210316.0004)
 -->
<!-- Title: dependencies Pages: 1 -->
<svg width="3656pt" height="284pt"
 viewBox="0.00 0.00 3656.00 284.00" xmlns="http://www.w3.org/2000/svg" xmlns:xlink="http://www.w3.org/1999/xlink">
<g id="graph0" class="graph" transform="scale(1 1) rotate(0) translate(4 280)">
<title>dependencies</title>
<polygon fill="white" stroke="transparent" points="-4,4 -4,-280 3652,-280 3652,4 -4,4"/>
<text text-anchor="start" x="1803.01" y="-42.4" font-family="Times-12" font-weight="bold" font-size="14.00">Legend</text>
<polygon fill="#ffffb3" stroke="transparent" points="1590,-10 1590,-30 1610,-30 1610,-10 1590,-10"/>
<text text-anchor="start" x="1613.63" y="-15.4" font-family="Times-12" font-size="14.00"> &#160;Declarations</text>
<polygon fill="#8dd3c7" stroke="transparent" points="1703,-10 1703,-30 1723,-30 1723,-10 1703,-10"/>
<text text-anchor="start" x="1726.73" y="-15.4" font-family="Times-12" font-size="14.00"> &#160;Module</text>
<polygon fill="#80b1d3" stroke="transparent" points="1789,-10 1789,-30 1809,-30 1809,-10 1789,-10"/>
<text text-anchor="start" x="1812.78" y="-15.4" font-family="Times-12" font-size="14.00"> &#160;Bootstrap</text>
<polygon fill="#fdb462" stroke="transparent" points="1886,-10 1886,-30 1906,-30 1906,-10 1886,-10"/>
<text text-anchor="start" x="1909.67" y="-15.4" font-family="Times-12" font-size="14.00"> &#160;Providers</text>
<polygon fill="#fb8072" stroke="transparent" points="1982,-10 1982,-30 2002,-30 2002,-10 1982,-10"/>
<text text-anchor="start" x="2005.73" y="-15.4" font-family="Times-12" font-size="14.00"> &#160;Exports</text>
<g id="clust1" class="cluster">
<title>cluster_AppModule</title>
<polygon fill="none" stroke="black" stroke-dasharray="1,5" points="8,-70 8,-268 3640,-268 3640,-70 8,-70"/>
</g>
<g id="clust2" class="cluster">
<title>cluster_AppModule_declarations</title>
<polygon fill="none" stroke="black" points="335,-78 335,-130 3632,-130 3632,-78 335,-78"/>
</g>
<g id="clust25" class="cluster">
<title>cluster_AppModule_bootstrap</title>
<polygon fill="none" stroke="black" points="1695,-208 1695,-260 1819,-260 1819,-208 1695,-208"/>
</g>
<g id="clust26" class="cluster">
<title>cluster_AppModule_providers</title>
<polygon fill="none" stroke="black" points="16,-78 16,-130 327,-130 327,-78 16,-78"/>
</g>
<!-- ActivitiesListComponent -->
<g id="node1" class="node">
<title>ActivitiesListComponent</title>
<polygon fill="#ffffb3" stroke="black" points="3623.54,-122 3466.46,-122 3466.46,-86 3623.54,-86 3623.54,-122"/>
<text text-anchor="middle" x="3545" y="-99.8" font-family="Times,serif" font-size="14.00">ActivitiesListComponent</text>
</g>
<!-- AppModule -->
<g id="node21" class="node">
<title>AppModule</title>
<polygon fill="#8dd3c7" stroke="black" points="1798.66,-187 1795.66,-191 1774.66,-191 1771.66,-187 1715.34,-187 1715.34,-151 1798.66,-151 1798.66,-187"/>
<text text-anchor="middle" x="1757" y="-164.8" font-family="Times,serif" font-size="14.00">AppModule</text>
</g>
<!-- ActivitiesListComponent&#45;&gt;AppModule -->
<g id="edge1" class="edge">
<title>ActivitiesListComponent&#45;&gt;AppModule</title>
<path fill="none" stroke="black" d="M3545,-122.15C3545,-145.76 3545,-184 3545,-184 3545,-184 1809,-184 1809,-184"/>
<polygon fill="black" stroke="black" points="1809,-180.5 1799,-184 1809,-187.5 1809,-180.5"/>
</g>
<!-- ActivityCreateComponent -->
<g id="node2" class="node">
<title>ActivityCreateComponent</title>
<polygon fill="#ffffb3" stroke="black" points="3447.75,-122 3284.25,-122 3284.25,-86 3447.75,-86 3447.75,-122"/>
<text text-anchor="middle" x="3366" y="-99.8" font-family="Times,serif" font-size="14.00">ActivityCreateComponent</text>
</g>
<!-- ActivityCreateComponent&#45;&gt;AppModule -->
<g id="edge2" class="edge">
<title>ActivityCreateComponent&#45;&gt;AppModule</title>
<path fill="none" stroke="black" d="M3366,-122.25C3366,-145.02 3366,-181 3366,-181 3366,-181 1808.8,-181 1808.8,-181"/>
<polygon fill="black" stroke="black" points="1808.8,-177.5 1798.8,-181 1808.8,-184.5 1808.8,-177.5"/>
</g>
<!-- ActivityDetailsComponent -->
<g id="node3" class="node">
<title>ActivityDetailsComponent</title>
<polygon fill="#ffffb3" stroke="black" points="3266.37,-122 3099.63,-122 3099.63,-86 3266.37,-86 3266.37,-122"/>
<text text-anchor="middle" x="3183" y="-99.8" font-family="Times,serif" font-size="14.00">ActivityDetailsComponent</text>
</g>
<!-- ActivityDetailsComponent&#45;&gt;AppModule -->
<g id="edge3" class="edge">
<title>ActivityDetailsComponent&#45;&gt;AppModule</title>
<path fill="none" stroke="black" d="M3183,-122.29C3183,-144.21 3183,-178 3183,-178 3183,-178 1808.91,-178 1808.91,-178"/>
<polygon fill="black" stroke="black" points="1808.91,-174.5 1798.91,-178 1808.91,-181.5 1808.91,-174.5"/>
</g>
<!-- ActivityUpdateComponent -->
<g id="node4" class="node">
<title>ActivityUpdateComponent</title>
<polygon fill="#ffffb3" stroke="black" points="3081.64,-122 2914.36,-122 2914.36,-86 3081.64,-86 3081.64,-122"/>
<text text-anchor="middle" x="2998" y="-99.8" font-family="Times,serif" font-size="14.00">ActivityUpdateComponent</text>
</g>
<!-- ActivityUpdateComponent&#45;&gt;AppModule -->
<g id="edge4" class="edge">
<title>ActivityUpdateComponent&#45;&gt;AppModule</title>
<path fill="none" stroke="black" d="M2998,-122.03C2998,-142.77 2998,-174 2998,-174 2998,-174 1809,-174 1809,-174"/>
<polygon fill="black" stroke="black" points="1809,-170.5 1799,-174 1809,-177.5 1809,-170.5"/>
</g>
<!-- AppComponent -->
<g id="node5" class="node">
<title>AppComponent</title>
<polygon fill="#ffffb3" stroke="black" points="2895.94,-122 2790.06,-122 2790.06,-86 2895.94,-86 2895.94,-122"/>
<text text-anchor="middle" x="2843" y="-99.8" font-family="Times,serif" font-size="14.00">AppComponent</text>
</g>
<!-- AppComponent&#45;&gt;AppModule -->
<g id="edge5" class="edge">
<title>AppComponent&#45;&gt;AppModule</title>
<path fill="none" stroke="black" d="M2843,-122.31C2843,-142.15 2843,-171 2843,-171 2843,-171 1808.91,-171 1808.91,-171"/>
<polygon fill="black" stroke="black" points="1808.91,-167.5 1798.91,-171 1808.91,-174.5 1808.91,-167.5"/>
</g>
<!-- BoulderComponent -->
<g id="node6" class="node">
<title>BoulderComponent</title>
<polygon fill="#ffffb3" stroke="black" points="2772.44,-122 2645.56,-122 2645.56,-86 2772.44,-86 2772.44,-122"/>
<text text-anchor="middle" x="2709" y="-99.8" font-family="Times,serif" font-size="14.00">BoulderComponent</text>
</g>
<!-- BoulderComponent&#45;&gt;AppModule -->
<g id="edge6" class="edge">
<title>BoulderComponent&#45;&gt;AppModule</title>
<path fill="none" stroke="black" d="M2709,-122.17C2709,-141.09 2709,-168 2709,-168 2709,-168 1808.83,-168 1808.83,-168"/>
<polygon fill="black" stroke="black" points="1808.83,-164.5 1798.83,-168 1808.83,-171.5 1808.83,-164.5"/>
</g>
<!-- BoulderCreateComponent -->
<g id="node7" class="node">
<title>BoulderCreateComponent</title>
<polygon fill="#ffffb3" stroke="black" points="2627.47,-122 2464.53,-122 2464.53,-86 2627.47,-86 2627.47,-122"/>
<text text-anchor="middle" x="2546" y="-99.8" font-family="Times,serif" font-size="14.00">BoulderCreateComponent</text>
</g>
<!-- BoulderCreateComponent&#45;&gt;AppModule -->
<g id="edge7" class="edge">
<title>BoulderCreateComponent&#45;&gt;AppModule</title>
<path fill="none" stroke="black" d="M2546,-122.3C2546,-140.27 2546,-165 2546,-165 2546,-165 1808.86,-165 1808.86,-165"/>
<polygon fill="black" stroke="black" points="1808.86,-161.5 1798.86,-165 1808.86,-168.5 1808.86,-161.5"/>
</g>
<!-- BoulderUpdateComponent -->
<g id="node8" class="node">
<title>BoulderUpdateComponent</title>
<polygon fill="#ffffb3" stroke="black" points="2446.36,-122 2279.64,-122 2279.64,-86 2446.36,-86 2446.36,-122"/>
<text text-anchor="middle" x="2363" y="-99.8" font-family="Times,serif" font-size="14.00">BoulderUpdateComponent</text>
</g>
<!-- BoulderUpdateComponent&#45;&gt;AppModule -->
<g id="edge8" class="edge">
<title>BoulderUpdateComponent&#45;&gt;AppModule</title>
<path fill="none" stroke="black" d="M2363,-122.04C2363,-138.73 2363,-161 2363,-161 2363,-161 1809.13,-161 1809.13,-161"/>
<polygon fill="black" stroke="black" points="1809.13,-157.5 1799.13,-161 1809.13,-164.5 1809.13,-157.5"/>
</g>
<!-- BouldersListComponent -->
<g id="node9" class="node">
<title>BouldersListComponent</title>
<polygon fill="#ffffb3" stroke="black" points="2261.66,-122 2108.34,-122 2108.34,-86 2261.66,-86 2261.66,-122"/>
<text text-anchor="middle" x="2185" y="-99.8" font-family="Times,serif" font-size="14.00">BouldersListComponent</text>
</g>
<!-- BouldersListComponent&#45;&gt;AppModule -->
<g id="edge9" class="edge">
<title>BouldersListComponent&#45;&gt;AppModule</title>
<path fill="none" stroke="black" d="M2185,-122.28C2185,-137.95 2185,-158 2185,-158 2185,-158 1808.82,-158 1808.82,-158"/>
<polygon fill="black" stroke="black" points="1808.82,-154.5 1798.82,-158 1808.82,-161.5 1808.82,-154.5"/>
</g>
<!-- ClimbCreateComponent -->
<g id="node10" class="node">
<title>ClimbCreateComponent</title>
<polygon fill="#ffffb3" stroke="black" points="2090.37,-122 1937.63,-122 1937.63,-86 2090.37,-86 2090.37,-122"/>
<text text-anchor="middle" x="2014" y="-99.8" font-family="Times,serif" font-size="14.00">ClimbCreateComponent</text>
</g>
<!-- ClimbCreateComponent&#45;&gt;AppModule -->
<g id="edge10" class="edge">
<title>ClimbCreateComponent&#45;&gt;AppModule</title>
<path fill="none" stroke="black" d="M2014,-122.12C2014,-136.78 2014,-155 2014,-155 2014,-155 1808.86,-155 1808.86,-155"/>
<polygon fill="black" stroke="black" points="1808.86,-151.5 1798.86,-155 1808.86,-158.5 1808.86,-151.5"/>
</g>
<!-- ClimbDeleteComponent -->
<g id="node11" class="node">
<title>ClimbDeleteComponent</title>
<polygon fill="#ffffb3" stroke="black" points="1919.37,-122 1766.63,-122 1766.63,-86 1919.37,-86 1919.37,-122"/>
<text text-anchor="middle" x="1843" y="-99.8" font-family="Times,serif" font-size="14.00">ClimbDeleteComponent</text>
</g>
<!-- ClimbDeleteComponent&#45;&gt;AppModule -->
<g id="edge11" class="edge">
<title>ClimbDeleteComponent&#45;&gt;AppModule</title>
<path fill="none" stroke="black" d="M1782.7,-122.11C1782.7,-122.11 1782.7,-140.99 1782.7,-140.99"/>
<polygon fill="black" stroke="black" points="1779.2,-140.99 1782.7,-150.99 1786.2,-140.99 1779.2,-140.99"/>
</g>
<!-- ClimbDetailsComponent -->
<g id="node12" class="node">
<title>ClimbDetailsComponent</title>
<polygon fill="#ffffb3" stroke="black" points="1748.99,-122 1593.01,-122 1593.01,-86 1748.99,-86 1748.99,-122"/>
<text text-anchor="middle" x="1671" y="-99.8" font-family="Times,serif" font-size="14.00">ClimbDetailsComponent</text>
</g>
<!-- ClimbDetailsComponent&#45;&gt;AppModule -->
<g id="edge12" class="edge">
<title>ClimbDetailsComponent&#45;&gt;AppModule</title>
<path fill="none" stroke="black" d="M1732.08,-122.11C1732.08,-122.11 1732.08,-140.99 1732.08,-140.99"/>
<polygon fill="black" stroke="black" points="1728.58,-140.99 1732.08,-150.99 1735.58,-140.99 1728.58,-140.99"/>
</g>
<!-- ClimbUpdateComponent -->
<g id="node13" class="node">
<title>ClimbUpdateComponent</title>
<polygon fill="#ffffb3" stroke="black" points="1575.27,-122 1418.73,-122 1418.73,-86 1575.27,-86 1575.27,-122"/>
<text text-anchor="middle" x="1497" y="-99.8" font-family="Times,serif" font-size="14.00">ClimbUpdateComponent</text>
</g>
<!-- ClimbUpdateComponent&#45;&gt;AppModule -->
<g id="edge13" class="edge">
<title>ClimbUpdateComponent&#45;&gt;AppModule</title>
<path fill="none" stroke="black" d="M1497,-122.12C1497,-136.78 1497,-155 1497,-155 1497,-155 1705.23,-155 1705.23,-155"/>
<polygon fill="black" stroke="black" points="1705.23,-158.5 1715.23,-155 1705.23,-151.5 1705.23,-158.5"/>
</g>
<!-- ClimbsListComponent -->
<g id="node14" class="node">
<title>ClimbsListComponent</title>
<polygon fill="#ffffb3" stroke="black" points="1400.56,-122 1257.44,-122 1257.44,-86 1400.56,-86 1400.56,-122"/>
<text text-anchor="middle" x="1329" y="-99.8" font-family="Times,serif" font-size="14.00">ClimbsListComponent</text>
</g>
<!-- ClimbsListComponent&#45;&gt;AppModule -->
<g id="edge14" class="edge">
<title>ClimbsListComponent&#45;&gt;AppModule</title>
<path fill="none" stroke="black" d="M1329,-122.28C1329,-137.95 1329,-158 1329,-158 1329,-158 1705.18,-158 1705.18,-158"/>
<polygon fill="black" stroke="black" points="1705.18,-161.5 1715.18,-158 1705.18,-154.5 1705.18,-161.5"/>
</g>
<!-- LoginComponent -->
<g id="node15" class="node">
<title>LoginComponent</title>
<polygon fill="#ffffb3" stroke="black" points="1239.28,-122 1124.72,-122 1124.72,-86 1239.28,-86 1239.28,-122"/>
<text text-anchor="middle" x="1182" y="-99.8" font-family="Times,serif" font-size="14.00">LoginComponent</text>
</g>
<!-- LoginComponent&#45;&gt;AppModule -->
<g id="edge15" class="edge">
<title>LoginComponent&#45;&gt;AppModule</title>
<path fill="none" stroke="black" d="M1182,-122.04C1182,-138.73 1182,-161 1182,-161 1182,-161 1705.18,-161 1705.18,-161"/>
<polygon fill="black" stroke="black" points="1705.18,-164.5 1715.18,-161 1705.18,-157.5 1705.18,-164.5"/>
</g>
<!-- PlaceComponent -->
<g id="node16" class="node">
<title>PlaceComponent</title>
<polygon fill="#ffffb3" stroke="black" points="1106.65,-122 995.35,-122 995.35,-86 1106.65,-86 1106.65,-122"/>
<text text-anchor="middle" x="1051" y="-99.8" font-family="Times,serif" font-size="14.00">PlaceComponent</text>
</g>
<!-- PlaceComponent&#45;&gt;AppModule -->
<g id="edge16" class="edge">
<title>PlaceComponent&#45;&gt;AppModule</title>
<path fill="none" stroke="black" d="M1051,-122.3C1051,-140.27 1051,-165 1051,-165 1051,-165 1705.21,-165 1705.21,-165"/>
<polygon fill="black" stroke="black" points="1705.21,-168.5 1715.21,-165 1705.21,-161.5 1705.21,-168.5"/>
</g>
<!-- PlaceUpdateComponent -->
<g id="node17" class="node">
<title>PlaceUpdateComponent</title>
<polygon fill="#ffffb3" stroke="black" points="977.08,-122 824.92,-122 824.92,-86 977.08,-86 977.08,-122"/>
<text text-anchor="middle" x="901" y="-99.8" font-family="Times,serif" font-size="14.00">PlaceUpdateComponent</text>
</g>
<!-- PlaceUpdateComponent&#45;&gt;AppModule -->
<g id="edge17" class="edge">
<title>PlaceUpdateComponent&#45;&gt;AppModule</title>
<path fill="none" stroke="black" d="M901,-122.17C901,-141.09 901,-168 901,-168 901,-168 1705.13,-168 1705.13,-168"/>
<polygon fill="black" stroke="black" points="1705.13,-171.5 1715.13,-168 1705.13,-164.5 1705.13,-171.5"/>
</g>
<!-- PlacesListComponent -->
<g id="node18" class="node">
<title>PlacesListComponent</title>
<polygon fill="#ffffb3" stroke="black" points="807.37,-122 668.63,-122 668.63,-86 807.37,-86 807.37,-122"/>
<text text-anchor="middle" x="738" y="-99.8" font-family="Times,serif" font-size="14.00">PlacesListComponent</text>
</g>
<!-- PlacesListComponent&#45;&gt;AppModule -->
<g id="edge18" class="edge">
<title>PlacesListComponent&#45;&gt;AppModule</title>
<path fill="none" stroke="black" d="M738,-122.31C738,-142.15 738,-171 738,-171 738,-171 1705.15,-171 1705.15,-171"/>
<polygon fill="black" stroke="black" points="1705.15,-174.5 1715.15,-171 1705.15,-167.5 1705.15,-174.5"/>
</g>
<!-- RegisterComponent -->
<g id="node19" class="node">
<title>RegisterComponent</title>
<polygon fill="#ffffb3" stroke="black" points="650.98,-122 523.02,-122 523.02,-86 650.98,-86 650.98,-122"/>
<text text-anchor="middle" x="587" y="-99.8" font-family="Times,serif" font-size="14.00">RegisterComponent</text>
</g>
<!-- RegisterComponent&#45;&gt;AppModule -->
<g id="edge19" class="edge">
<title>RegisterComponent&#45;&gt;AppModule</title>
<path fill="none" stroke="black" d="M587,-122.03C587,-142.77 587,-174 587,-174 587,-174 1705.01,-174 1705.01,-174"/>
<polygon fill="black" stroke="black" points="1705.01,-177.5 1715.01,-174 1705.01,-170.5 1705.01,-177.5"/>
</g>
<!-- UserActivitiesComponent -->
<g id="node20" class="node">
<title>UserActivitiesComponent</title>
<polygon fill="#ffffb3" stroke="black" points="505.19,-122 342.81,-122 342.81,-86 505.19,-86 505.19,-122"/>
<text text-anchor="middle" x="424" y="-99.8" font-family="Times,serif" font-size="14.00">UserActivitiesComponent</text>
</g>
<!-- UserActivitiesComponent&#45;&gt;AppModule -->
<g id="edge20" class="edge">
<title>UserActivitiesComponent&#45;&gt;AppModule</title>
<path fill="none" stroke="black" d="M424,-122.29C424,-144.21 424,-178 424,-178 424,-178 1705.28,-178 1705.28,-178"/>
<polygon fill="black" stroke="black" points="1705.28,-181.5 1715.28,-178 1705.28,-174.5 1705.28,-181.5"/>
</g>
<!-- AppComponent  -->
<g id="node22" class="node">
<title>AppComponent </title>
<polygon fill="#80b1d3" stroke="black" points="1811.44,-252 1702.56,-252 1702.56,-216 1811.44,-216 1811.44,-252"/>
<text text-anchor="middle" x="1757" y="-229.8" font-family="Times,serif" font-size="14.00">AppComponent </text>
</g>
<!-- AppModule&#45;&gt;AppComponent  -->
<g id="edge21" class="edge">
<title>AppModule&#45;&gt;AppComponent </title>
<path fill="none" stroke="black" stroke-dasharray="1,5" d="M1757,-187.11C1757,-187.11 1757,-205.99 1757,-205.99"/>
<polygon fill="black" stroke="black" points="1753.5,-205.99 1757,-215.99 1760.5,-205.99 1753.5,-205.99"/>
</g>
<!-- ApiHttpService -->
<g id="node23" class="node">
<title>ApiHttpService</title>
<ellipse fill="#fdb462" stroke="black" cx="247" cy="-104" rx="71.79" ry="18"/>
<text text-anchor="middle" x="247" y="-99.8" font-family="Times,serif" font-size="14.00">ApiHttpService</text>
</g>
<!-- ApiHttpService&#45;&gt;AppModule -->
<g id="edge22" class="edge">
<title>ApiHttpService&#45;&gt;AppModule</title>
<path fill="none" stroke="black" d="M247,-122.25C247,-145.02 247,-181 247,-181 247,-181 1705.04,-181 1705.04,-181"/>
<polygon fill="black" stroke="black" points="1705.04,-184.5 1715.04,-181 1705.04,-177.5 1705.04,-184.5"/>
</g>
<!-- MyInterceptor -->
<g id="node24" class="node">
<title>MyInterceptor</title>
<ellipse fill="#fdb462" stroke="black" cx="91" cy="-104" rx="66.61" ry="18"/>
<text text-anchor="middle" x="91" y="-99.8" font-family="Times,serif" font-size="14.00">MyInterceptor</text>
</g>
<!-- MyInterceptor&#45;&gt;AppModule -->
<g id="edge23" class="edge">
<title>MyInterceptor&#45;&gt;AppModule</title>
<path fill="none" stroke="black" d="M91,-122.15C91,-145.76 91,-184 91,-184 91,-184 1704.98,-184 1704.98,-184"/>
<polygon fill="black" stroke="black" points="1704.98,-187.5 1714.98,-184 1704.98,-180.5 1704.98,-187.5"/>
</g>
</g>
</svg>
